<svg xmlns="http://www.w3.org/2000/svg" viewBox="0 0 128 128" role="img" aria-label="Default avatar">
  <rect width="128" height="128" rx="24" fill="#f8fafc"/>
  <path d="M64 16c-21 0-38 17-38 38 0 13 7 25 18 32v10c0 6 5 10 11 10h18c6 0 11-4 11-10V86c11-7 18-19 18-32 0-21-17-38-38-38z" fill="#0f172a"/>
  <circle cx="48" cy="52" r="7" fill="#f8fafc"/>
  <circle cx="80" cy="52" r="7" fill="#f8fafc"/>
  <path d="M64 66l-8 12h16z" fill="#f8fafc"/>
  <rect x="46" y="90" width="36" height="12" rx="4" fill="#f8fafc"/>
  <rect x="54" y="90" width="4" height="12" fill="#0f172a"/>
  <rect x="62" y="90" width="4" height="12" fill="#0f172a"/>
  <rect x="70" y="90" width="4" height="12" fill="#0f172a"/>
</svg>
